# xmcd CD database generated by RipIT
#
# Track frame offsets:
# 150
# 29391
# 41993
# 53356
# 65776
# 78527
# 96199
# 108115
# 117567
# 130211
# 142570
# 155635
# 170771
# 184840
# 200139
# 214707
# 229258
# 243032
# 254732
# 266898
# 278252
# 290936
# 303887
# 317300
#
# Disc length: 4398 seconds
#
# Revision: 0
# Processed by: cddbd v1.5.2PL0 Copyright (c) Steve Scherf et al.
# Submitted via: RipIT 4.0.0-beta20140508 www.suwald.com/ripit/ripit.html on 2019-12-25 at 12:07
#
DISCID=64112c18
DTITLE=Ray Charles - Essential Original Albums [CD3]
DYEAR=2016
DGENRE=Blues
TTITLE0=What'd I Say (Parts 1 and 2)
TTITLE1=Jumpin' In The Mornin'
TTITLE2=You Be My Baby
TTITLE3=Tell Me How Do You Feel
TTITLE4=What Kind Of A Man Are You
TTITLE5=Rockhouse (Parts 1 and 2)
TTITLE6=Roll With My Baby
TTITLE7=Tell All The World About You
TTITLE8=My Bonnie
TTITLE9=That's Enough
TTITLE10=Ain't That Love
TTITLE11=Drown In My Own Tears
TTITLE12=Come Back Baby
TTITLE13=Sinner's Prayer
TTITLE14=Funny (But I Still Love You)
TTITLE15=Losing Hand
TTITLE16=A Fool for You
TTITLE17=Hallelujah I Love Her So
TTITLE18=Mess Around
TTITLE19=This Little Girl Of Mine
TTITLE20=Mary Ann
TTITLE21=Greenbacks
TTITLE22=Don't You Know
TTITLE23=I Got A Woman
EXTD=
EXTT0=
EXTT1=
EXTT2=
EXTT3=
EXTT4=
EXTT5=
EXTT6=
EXTT7=
EXTT8=
EXTT9=
EXTT10=
EXTT11=
EXTT12=
EXTT13=
EXTT14=
EXTT15=
EXTT16=
EXTT17=
EXTT18=
EXTT19=
EXTT20=
EXTT21=
EXTT22=
EXTT23=
PLAYORDER=
